<?xml version="1.0" standalone="no"?>
<!DOCTYPE svg PUBLIC "-//W3C//DTD SVG 20010904//EN"
 "http://www.w3.org/TR/2001/REC-SVG-20010904/DTD/svg10.dtd">
<svg version="1.0" xmlns="http://www.w3.org/2000/svg"
 width="256.000000pt" height="256.000000pt" viewBox="0 0 256.000000 256.000000"
 preserveAspectRatio="xMidYMid meet">

<g transform="translate(0.000000,256.000000) scale(0.100000,-0.100000)"
fill="#000000" stroke="none">
<path d="M0 1280 l0 -1280 1280 0 1280 0 0 1280 0 1280 -1280 0 -1280 0 0
-1280z m1402 1179 c59 -21 117 -75 155 -143 25 -46 28 -60 28 -141 -1 -87 -4
-100 -44 -171 -45 -81 -147 -134 -259 -134 -132 0 -220 52 -279 164 -29 53
-33 70 -33 138 0 70 4 84 38 149 21 40 47 77 57 83 11 6 24 17 30 24 39 48
213 66 307 31z m-865 -495 c68 -35 110 -76 143 -140 21 -42 25 -63 25 -139 0
-67 -5 -99 -19 -127 -10 -21 -22 -35 -27 -32 -5 3 -6 -1 -3 -9 7 -20 -54 -78
-120 -111 -52 -27 -62 -28 -153 -24 -84 3 -104 8 -138 30 -52 33 -98 83 -124
133 -30 58 -30 222 0 280 26 49 83 111 124 133 86 48 203 50 292 6z m1761 -1
c58 -30 120 -92 147 -149 14 -30 16 -57 13 -143 -4 -99 -6 -109 -35 -151 -41
-59 -67 -82 -131 -115 -49 -25 -59 -27 -150 -23 -79 4 -104 9 -136 28 -55 34
-108 89 -102 107 3 8 2 12 -3 9 -19 -12 -45 70 -49 150 -4 73 -1 87 25 140 43
89 117 152 202 174 61 16 159 3 219 -27z m-1783 -814 c21 -11 44 -19 50 -19
19 0 91 -84 115 -134 16 -34 25 -74 28 -125 4 -72 2 -80 -35 -151 -32 -64 -47
-81 -98 -115 -59 -39 -62 -40 -161 -43 -89 -3 -107 -1 -145 18 -71 36 -106 67
-137 122 -28 49 -30 61 -31 158 -1 75 3 112 14 130 8 14 20 36 27 50 7 14 21
31 32 39 10 8 26 22 35 33 8 10 23 18 32 18 8 0 19 3 23 8 35 35 188 41 251
11z m1764 -2 c19 -9 38 -17 43 -17 18 0 87 -76 112 -124 23 -43 26 -61 26
-145 0 -90 -2 -99 -34 -156 -19 -33 -39 -59 -46 -57 -6 1 -9 -2 -6 -7 3 -5
-18 -24 -46 -43 -53 -33 -54 -33 -173 -33 -81 0 -125 4 -135 12 -8 7 -35 27
-59 45 -43 32 -83 85 -74 101 2 4 0 7 -5 7 -29 0 -44 170 -20 227 6 15 11 31
10 35 -1 3 5 12 13 18 8 7 15 18 15 25 0 16 80 95 96 95 6 0 28 9 50 20 50 26
180 24 233 -3z"/>
<path d="M1225 2323 c-22 -9 -46 -25 -53 -34 -7 -10 -20 -25 -29 -34 -25 -26
-24 -126 3 -162 30 -40 94 -82 127 -83 34 0 94 30 125 62 72 78 35 215 -68
252 -54 19 -54 19 -105 -1z"/>
<path d="M292 1796 c-47 -44 -47 -45 -47 -111 0 -63 2 -68 33 -96 18 -16 29
-29 25 -29 -5 -1 3 -7 17 -15 14 -8 51 -14 83 -15 54 0 61 3 96 38 49 47 61
71 61 121 0 48 -21 87 -68 124 -29 22 -45 27 -94 27 -56 0 -61 -2 -106 -44z"/>
<path d="M2087 1829 c-24 -14 -64 -55 -77 -79 -5 -10 -10 -42 -10 -71 0 -49 3
-55 49 -100 47 -48 49 -49 109 -49 59 0 63 2 105 44 74 73 72 162 -3 230 -36
33 -45 36 -98 36 -31 0 -65 -5 -75 -11z"/>
<path d="M355 1016 c-48 -21 -95 -69 -106 -110 -14 -51 -3 -109 26 -136 14
-13 22 -27 18 -33 -3 -6 -1 -7 5 -3 7 4 12 3 12 -1 0 -5 21 -15 46 -22 64 -19
119 0 168 57 30 36 36 52 36 89 0 24 -5 54 -11 66 -23 46 -111 108 -151 107
-7 -1 -27 -7 -43 -14z"/>
<path d="M2111 1015 c-71 -31 -111 -88 -111 -158 0 -36 7 -53 38 -91 20 -25
45 -46 54 -46 9 0 20 -5 24 -11 6 -10 51 -8 100 4 11 3 36 20 54 38 83 83 49
216 -67 265 -40 17 -49 17 -92 -1z"/>
</g>
</svg>
